<svg id="Capa_1" enable-background="new 0 0 512 512" height="512" viewBox="0 0 512 512" width="512" xmlns="http://www.w3.org/2000/svg"><g><path d="m497 504.5h-30l-60-218.5 60-218.5h30z" fill="#666ddc"/><path d="m467 504.5h-317v-165l317 135z" fill="#7d8fe5"/><path d="m467 474.5h-30l-60-218.5 60-218.5h30z" fill="#ff336d"/><path d="m120 339.5h317v135h-317z" fill="#ff545a"/><path d="m317 209.5-212 130h-90c0 24.853 20.147 45 45 45h302z" fill="#ffb44e"/><path d="m317 209.5v130c0 24.853 20.147 45 45 45h30v-175z" fill="#ff9733"/><path d="m407 7.5-30 374.429c4.693 1.659 9.739 2.571 15 2.571 24.853 0 45-20.147 45-45v-332z" fill="#ffb44e"/><path d="m105 7.5v332h242c0 19.592 12.524 36.25 30 42.429 17.476-6.179 30-22.837 30-42.429v-332z" fill="#ffd06a"/><circle cx="271" cy="264.5" fill="#4e4cd3" r="15"/><path d="m271 67.5c-8.284 0-15 6.716-15 15v122c0 8.284 6.716 15 15 15s15-6.716 15-15v-122c0-8.284-6.716-15-15-15z" fill="#4e4cd3"/><path d="m497 60h-22.5v-22.5c0-4.142-3.357-7.5-7.5-7.5h-22.5v-22.5c0-4.142-3.357-7.5-7.5-7.5h-332c-4.143 0-7.5 3.358-7.5 7.5v324.5h-82.5c-4.143 0-7.5 3.358-7.5 7.5 0 28.949 23.552 52.5 52.5 52.5h332c28.948 0 52.5-23.551 52.5-52.5v-294.5h15v422h-332v-52.5c0-4.142-3.357-7.5-7.5-7.5s-7.5 3.358-7.5 7.5v60c0 4.142 3.357 7.5 7.5 7.5h22.5v22.5c0 4.142 3.357 7.5 7.5 7.5h347c4.143 0 7.5-3.358 7.5-7.5v-437c0-4.142-3.357-7.5-7.5-7.5zm-437 317c-18.109 0-33.262-12.905-36.747-30h316.781c1.677 11.673 7.208 22.118 15.259 30zm369.5-37.5c0 20.678-16.822 37.5-37.5 37.5s-37.5-16.822-37.5-37.5c0-4.142-3.357-7.5-7.5-7.5h-234.5v-317h317zm60 157.5h-332v-15h309.5c4.143 0 7.5-3.358 7.5-7.5v-399.5h15z"/><path d="m271 60c-12.406 0-22.5 10.093-22.5 22.5v122c0 12.407 10.094 22.5 22.5 22.5s22.5-10.093 22.5-22.5v-122c0-12.407-10.094-22.5-22.5-22.5zm7.5 144.5c0 4.136-3.364 7.5-7.5 7.5s-7.5-3.364-7.5-7.5v-122c0-4.136 3.364-7.5 7.5-7.5s7.5 3.364 7.5 7.5z"/><path d="m271 242c-12.406 0-22.5 10.093-22.5 22.5s10.094 22.5 22.5 22.5 22.5-10.093 22.5-22.5-10.094-22.5-22.5-22.5zm0 30c-4.136 0-7.5-3.364-7.5-7.5s3.364-7.5 7.5-7.5 7.5 3.364 7.5 7.5-3.364 7.5-7.5 7.5z"/></g></svg>