<svg id="Capa_1" enable-background="new 0 0 512.01 512.01" height="512" viewBox="0 0 512.01 512.01" width="512" xmlns="http://www.w3.org/2000/svg"><g><circle cx="429.382" cy="395.716" fill="#80e29d" r="75.127"/><path d="m441.443 321.552c14.218 13.669 23.066 32.883 23.066 54.164 0 41.492-33.636 75.127-75.127 75.127-4.105 0-8.134-.33-12.061-.963 13.503 12.982 31.85 20.963 52.061 20.963 41.492 0 75.127-33.635 75.127-75.127.001-37.386-27.308-68.394-63.066-74.164z" fill="#78d090"/><path d="m354.255 395.716c0-41.491 33.635-75.127 75.127-75.127 16.865 0 32.432 5.557 44.97 14.94v-218.583h-466.852v299.416c0 5.218 4.23 9.448 9.448 9.448h343.577c-4.032-9.214-6.27-19.393-6.27-30.094z" fill="#f6f9f9"/><path d="m354.255 395.716c0-41.491 33.635-75.127 75.127-75.127 16.865 0 32.432 5.557 44.97 14.94v-218.583h-40v154.551c0 18.318-16.205 32.41-34.342 29.839-3.821-.542-7.735-.796-11.718-.74-40.452.569-73.511 33.663-74.04 74.115-.004.284-.006.567-.006.85-.034 16.689-13.444 30.248-30.133 30.248h-276.613v10.552c0 5.218 4.23 9.448 9.448 9.448h343.577c-4.032-9.213-6.27-19.392-6.27-30.093z" fill="#e7ecf1"/><path d="m47.022 204.372c-1.076 0-1.948.872-1.948 1.948v174.803c0 1.076.872 1.948 1.948 1.948h54.01v-178.699z" fill="#da4a54"/><path d="m101.032 161.633v221.437h166.838c1.075 0 1.947-.872 1.947-1.947v-42.739h111.003v-178.698h-277.842c-1.075 0-1.946.872-1.946 1.947z" fill="#dae4ea"/><path d="m380.821 338.384v-37.308c-24.126 2.769-44.899 17.127-56.56 37.308z" fill="#c6d0da"/><g fill="#dae4ea"><path d="m59.549 91.71h-11.884c-5.2 0-9.415-4.215-9.415-9.415v-31.713c0-5.2 4.215-9.415 9.415-9.415h11.884c5.2 0 9.415 4.215 9.415 9.415v31.712c.001 5.2-4.215 9.416-9.415 9.416z"/><path d="m121.206 91.71h-10.945c-5.2 0-9.415-4.215-9.415-9.415v-31.713c0-5.2 4.215-9.415 9.415-9.415h10.945c5.2 0 9.415 4.215 9.415 9.415v31.712c.001 5.2-4.215 9.416-9.415 9.416z"/><path d="m183.802 91.71h-10.945c-5.2 0-9.415-4.215-9.415-9.415v-31.713c0-5.2 4.215-9.415 9.415-9.415h10.945c5.2 0 9.415 4.215 9.415 9.415v31.712c.001 5.2-4.215 9.416-9.415 9.416z"/><path d="m246.399 91.71h-10.945c-5.2 0-9.415-4.215-9.415-9.415v-31.713c0-5.2 4.215-9.415 9.415-9.415h10.945c5.2 0 9.415 4.215 9.415 9.415v31.712c0 5.2-4.215 9.416-9.415 9.416z"/><path d="m308.995 91.71h-10.945c-5.2 0-9.415-4.215-9.415-9.415v-31.713c0-5.2 4.215-9.415 9.415-9.415h10.945c5.2 0 9.415 4.215 9.415 9.415v31.712c0 5.2-4.215 9.416-9.415 9.416z"/><path d="m371.591 91.71h-10.945c-5.2 0-9.415-4.215-9.415-9.415v-31.713c0-5.2 4.215-9.415 9.415-9.415h10.945c5.2 0 9.415 4.215 9.415 9.415v31.712c0 5.2-4.215 9.416-9.415 9.416z"/><path d="m434.187 91.71h-10.945c-5.2 0-9.415-4.215-9.415-9.415v-31.713c0-5.2 4.215-9.415 9.415-9.415h10.945c5.2 0 9.415 4.215 9.415 9.415v31.712c0 5.2-4.215 9.416-9.415 9.416z"/></g><path d="m464.902 61.742h-21.3v20.553c0 5.2-4.215 9.415-9.415 9.415h-10.945c-5.2 0-9.415-4.215-9.415-9.415v-20.553h-32.821v20.553c0 5.2-4.215 9.415-9.415 9.415h-10.945c-5.2 0-9.415-4.215-9.415-9.415v-20.553h-32.821v20.553c0 5.2-4.215 9.415-9.415 9.415h-10.945c-5.2 0-9.415-4.215-9.415-9.415v-20.553h-32.821v20.553c0 5.2-4.215 9.415-9.415 9.415h-10.945c-5.2 0-9.415-4.215-9.415-9.415v-20.553h-32.821v20.553c0 5.2-4.215 9.415-9.415 9.415h-10.945c-5.2 0-9.415-4.215-9.415-9.415v-20.553h-32.821v20.553c0 5.2-4.215 9.415-9.415 9.415h-10.945c-5.2 0-9.415-4.215-9.415-9.415v-20.553h-31.882v20.553c0 5.2-4.215 9.415-9.415 9.415h-11.885c-5.2 0-9.415-4.215-9.415-9.415v-20.553h-21.3c-5.219 0-9.45 4.231-9.45 9.45v45.755h466.852v-45.756c0-5.219-4.231-9.449-9.45-9.449z" fill="#61a2f9"/><path d="m464.902 61.742h-21.3v20.553c0 5.145-4.127 9.325-9.25 9.413v25.238h40v-45.755c0-5.219-4.231-9.449-9.45-9.449z" fill="#5490f9"/><path d="m429.373 320.589c2.499 0 4.969.122 7.405.361v-159.316c0-1.076-.872-1.948-1.948-1.948h-54.01v178.698c13.095-11.1 30.042-17.795 48.553-17.795z" fill="#da4a54"/><path d="m434.831 159.686h-.479v111.811c0 18.318-16.205 32.41-34.342 29.839-3.821-.542-7.735-.796-11.718-.74-2.521.035-5.014.197-7.472.479v37.308c13.094-11.1 30.042-17.795 48.552-17.795 2.499 0 4.969.122 7.405.361v-159.315c.001-1.076-.871-1.948-1.946-1.948z" fill="#d82e3d"/><path d="m472.013 379.58-14.197-14.197c-1.492-1.492-3.911-1.492-5.403 0l-27.466 27.466c-1.492 1.492-3.911 1.492-5.403 0l-13.191-13.191c-1.492-1.492-3.911-1.492-5.403 0l-14.197 14.197c-1.492 1.492-1.492 3.911 0 5.403l32.792 32.792c1.492 1.492 3.911 1.492 5.403 0l47.066-47.066c1.491-1.493 1.491-3.912-.001-5.404z" fill="#f6f9f9"/><path d="m430.25 437.353 47.066-47.066c4.424-4.425 4.424-11.585 0-16.01l-14.198-14.198c-4.414-4.413-11.594-4.411-16.01.001l-24.863 24.864-10.589-10.589c-4.414-4.415-11.597-4.413-16.011 0l-14.197 14.197c-4.413 4.414-4.413 11.596 0 16.01l32.791 32.79c4.424 4.426 11.585 4.425 16.011.001zm-26.599-49.791 10.588 10.588c4.424 4.427 11.585 4.426 16.011.001l24.864-24.864 8.993 8.994-41.862 41.863-27.588-27.588z"/><path d="m481.853 331.933v-108.905c0-4.142-3.357-7.5-7.5-7.5s-7.5 3.358-7.5 7.5v99.055c-7.009-3.581-14.593-6.19-22.574-7.649v-152.8c0-5.209-4.238-9.448-9.447-9.448h-331.853c-5.209 0-9.447 4.238-9.447 9.447v35.239h-46.51c-5.209 0-9.447 4.238-9.447 9.448v174.803c0 5.209 4.238 9.448 9.447 9.448h220.848c5.209 0 9.447-4.238 9.447-9.447v-35.239h86.122c-2.903 3.855-5.498 8-7.742 12.41-1.878 3.692-.408 8.207 3.284 10.085 3.688 1.878 8.206.409 10.085-3.284 11.532-22.668 34.55-37.007 60.316-37.007 37.29 0 67.627 30.337 67.627 67.627s-30.337 67.627-67.627 67.627-67.628-30.337-67.628-67.627c0-4.142-3.357-7.5-7.5-7.5s-7.5 3.358-7.5 7.5c0 7.831 1.095 15.41 3.14 22.594h-332.946c-1.074 0-1.948-.874-1.948-1.948v-291.916h30.074c4.143 0 7.5-3.358 7.5-7.5s-3.357-7.5-7.5-7.5h-30.074v-38.255c0-1.075.875-1.95 1.95-1.95h13.8v13.053c0 9.327 7.588 16.916 16.915 16.916h11.885c9.327 0 16.915-7.588 16.915-16.916v-13.052h16.881v13.053c0 9.327 7.589 16.916 16.916 16.916h10.944c9.327 0 16.915-7.588 16.915-16.916v-13.053h17.821v13.053c0 9.327 7.588 16.916 16.915 16.916h10.945c9.327 0 16.915-7.588 16.915-16.916v-13.053h17.82v13.053c0 9.327 7.589 16.916 16.916 16.916h10.944c9.327 0 16.915-7.588 16.915-16.916v-13.053h17.821v13.053c0 9.327 7.588 16.916 16.915 16.916h10.945c9.327 0 16.915-7.588 16.915-16.916v-13.053h17.82v13.053c0 9.327 7.589 16.916 16.916 16.916h10.944c9.327 0 16.915-7.588 16.915-16.916v-13.053h17.821v13.053c0 9.327 7.588 16.916 16.915 16.916h10.945c9.327 0 16.915-7.588 16.915-16.916v-13.053h13.8c1.075 0 1.949.875 1.949 1.95v38.254h-386.774c-4.143 0-7.5 3.358-7.5 7.5s3.357 7.5 7.5 7.5h386.778v63.583c0 4.142 3.357 7.5 7.5 7.5s7.5-3.358 7.5-7.5c0-88.103-.001-100.515-.001-116.837 0-9.346-7.604-16.95-16.949-16.95h-13.8v-3.66c0-9.327-7.588-16.915-16.915-16.915h-10.945c-9.327 0-16.915 7.588-16.915 16.915v3.66h-17.821v-3.66c0-9.327-7.588-16.915-16.915-16.915h-10.944c-9.327 0-16.916 7.588-16.916 16.915v3.66h-17.82v-3.66c0-9.327-7.588-16.915-16.915-16.915h-10.946c-9.327 0-16.915 7.588-16.915 16.915v3.66h-17.821v-3.66c0-9.327-7.588-16.915-16.915-16.915h-10.944c-9.327 0-16.916 7.588-16.916 16.915v3.66h-17.82v-3.66c0-9.327-7.588-16.915-16.915-16.915h-10.945c-9.327 0-16.915 7.588-16.915 16.915v3.66h-17.821v-3.66c0-9.327-7.588-16.915-16.915-16.915h-10.944c-9.327 0-16.916 7.588-16.916 16.915v3.66h-16.883v-3.66c0-9.327-7.588-16.915-16.915-16.915h-11.885c-9.327 0-16.915 7.588-16.915 16.915v3.66h-13.8c-9.346 0-16.95 7.603-16.95 16.949v345.17c0 9.345 7.603 16.948 16.948 16.948h338.865c13.706 26.712 41.538 45.033 73.57 45.033 45.561 0 82.627-37.066 82.627-82.627 0-25.654-11.753-48.616-30.157-63.782zm-220.448-1.004h-40.958v-29.686h40.958zm-96.916 0v-29.686h40.958v29.686zm40.958 15v29.641h-40.958v-29.641zm-96.916-134.057h40.958v29.686h-40.958zm279.789 44.685h40.958v29.686h-40.958zm-15 29.686h-40.957v-29.686h40.957zm55.958-44.686h-40.958v-29.686h40.958zm-55.958 0h-40.957v-29.686h40.957zm-55.957 0h-40.958v-29.686h40.958zm-55.958 0h-40.958v-29.686h40.958zm15-44.685v-29.686h40.958v29.686zm-15 0h-40.958v-29.686h40.958zm-55.958 0h-40.958v-29.686h40.958zm0 15v29.686h-40.958v-29.686zm0 44.685v29.686h-40.958v-29.686zm-55.958 0v29.686h-40.958v-29.686zm-55.958 29.686h-40.957v-29.686h40.957zm-40.957 15h40.957v29.686h-40.957zm55.957 0h40.958v29.686h-40.958zm111.916-15v-29.686h40.958v29.686zm55.958-29.686h40.958v29.686h-40.958zm55.958 44.686h40.957v29.641h-40.957zm55.957 0h40.958v11.846c-14.709.018-28.744 3.87-40.958 10.852zm40.958-104.371h-40.958v-29.686h40.958zm-55.958 0h-40.957v-29.686h40.957zm-223.831-29.686v29.686h-40.958v-29.686zm-55.958 44.686v29.686h-40.957v-29.686zm-40.957 134.057h40.957v29.641h-40.957zm55.957 0h40.958v29.641h-40.958zm111.916 29.641v-29.641h41.87v29.641zm55.958-44.686v-29.641h40.958v29.641zm144.922-280.302c0-1.056.859-1.915 1.915-1.915h10.945c1.056 0 1.915.859 1.915 1.915v31.712c0 1.056-.859 1.916-1.915 1.916h-10.945c-1.056 0-1.915-.859-1.915-1.916zm-62.597 0c0-1.056.859-1.915 1.916-1.915h10.944c1.056 0 1.915.859 1.915 1.915v31.712c0 1.056-.859 1.916-1.915 1.916h-10.944c-1.057 0-1.916-.859-1.916-1.916zm-62.595 0c0-1.056.859-1.915 1.915-1.915h10.945c1.056 0 1.915.859 1.915 1.915v31.712c0 1.056-.859 1.916-1.915 1.916h-10.945c-1.056 0-1.915-.859-1.915-1.916zm-62.597 0c0-1.056.859-1.915 1.916-1.915h10.944c1.056 0 1.915.859 1.915 1.915v31.712c0 1.056-.859 1.916-1.915 1.916h-10.944c-1.057 0-1.916-.859-1.916-1.916zm-62.596 0c0-1.056.859-1.915 1.915-1.915h10.945c1.056 0 1.915.859 1.915 1.915v31.712c0 1.056-.859 1.916-1.915 1.916h-10.945c-1.056 0-1.915-.859-1.915-1.916zm-62.596 0c0-1.056.859-1.915 1.916-1.915h10.944c1.056 0 1.915.859 1.915 1.915v31.712c0 1.056-.859 1.916-1.915 1.916h-10.944c-1.057 0-1.916-.859-1.916-1.916zm-62.596 0c0-1.056.859-1.915 1.915-1.915h11.885c1.056 0 1.915.859 1.915 1.915v31.712c0 1.056-.859 1.916-1.915 1.916h-11.885c-1.056 0-1.915-.859-1.915-1.916z"/></g></svg>