<svg version="1.1" id="Layer_1" xmlns="http://www.w3.org/2000/svg" xmlns:xlink="http://www.w3.org/1999/xlink" x="0px" y="0px" width="87px" height="66px" viewBox="0 0 87 66" enable-background="new 0 0 87 66" xml:space="preserve"> <path d="M43.5,28.875c-22.906,0-25.601-5.056-25.601-5.056v23.122v0.001c0.001,1.927,1.564,3.49,3.491,3.489h44.22
    h0.001c1.927,0,3.49-1.563,3.49-3.49V24.085C69.101,24.085,66.406,28.875,43.5,28.875z"></path> <path d="M69.086,20.772c-0.309-2.884-11.641-5.203-25.587-5.203c-13.944,0-25.277,2.318-25.585,5.203l-0.015-0.002
    v0.122c0,0,0.539,5.056,25.6,5.056c25.063,0,25.602-5.056,25.602-5.056V20.77L69.086,20.772z"></path> </svg>