<svg version="1.1" id="Layer_1" xmlns="http://www.w3.org/2000/svg" xmlns:xlink="http://www.w3.org/1999/xlink" x="0px" y="0px" width="87px" height="66px" viewBox="0 0 87 66" enable-background="new 0 0 87 66" xml:space="preserve"> <path d="M43.65,63.987h-0.127L32.474,63.81c-2.25-0.037-4.079-1.897-4.079-4.147V6.249
  c0-2.267,1.845-4.127,4.112-4.147l11.011-0.089l10.976,0.088c2.268,0.02,4.112,1.88,4.112,4.147v53.415
  c0,2.248-1.829,4.108-4.078,4.146L43.65,63.987z M43.58,2.647L32.512,2.736c-1.92,0.017-3.483,1.593-3.483,3.513v53.413
  c0,1.906,1.55,3.482,3.456,3.513l11.161,0.178l10.873-0.178c1.904-0.031,3.453-1.607,3.453-3.512V6.248
  c0-1.92-1.563-3.497-3.483-3.513L43.58,2.647z"></path> <path d="M41.808,59.677h3.629c0.612,0,1.109,0.497,1.109,1.109l0,0c0,0.612-0.497,1.109-1.109,1.109h-3.629
  c-0.612,0-1.109-0.497-1.109-1.109l0,0C40.699,60.174,41.194,59.677,41.808,59.677z"></path> <path d="M40.462,4.723h6.321c0.273,0,0.494,0.221,0.494,0.494v0.012c0,0.273-0.221,0.494-0.494,0.494h-6.321
  c-0.273,0-0.494-0.221-0.494-0.494V5.217C39.967,4.944,40.188,4.723,40.462,4.723z"></path> <path d="M30.11,8.875h27.024v48.376H30.111L30.11,8.875L30.11,8.875z"></path> </svg>