<svg version="1.1" id="Layer_1" xmlns="http://www.w3.org/2000/svg" xmlns:xlink="http://www.w3.org/1999/xlink" x="0px" y="0px" width="87px" height="66px" viewBox="0 0 87 66" enable-background="new 0 0 87 66" xml:space="preserve"> <path d="M50.4,44.72c-0.36,0.47-0.65,1.1-0.85,1.88c-0.18,0.67-0.35,2.19-0.5,4.52c-0.05,0.69-0.62,1.23-1.31,1.23
  h-8.99c-0.68,0-1.26-0.53-1.31-1.2c-0.22-2.51-0.38-4.04-0.47-4.55c-0.12-0.59-0.41-1.22-0.86-1.88h0.14
  c0.39,0.12,0.81,0.19,1.24,0.19h11.48c0.43,0,0.85-0.07,1.24-0.19H50.4z"></path> <path d="M50.4,21.28h-0.19c-0.39-0.12-0.81-0.19-1.24-0.19H37.49c-0.43,0-0.85,0.07-1.24,0.19h-0.14
  c0.36-0.47,0.65-1.1,0.86-1.88c0.17-0.67,0.34-2.19,0.49-4.52c0.05-0.69,0.62-1.23,1.32-1.23h8.98c0.68,0,1.26,0.53,1.31,1.2
  c0.22,2.5,0.38,4.03,0.47,4.55C49.66,19.99,49.95,20.62,50.4,21.28z"></path> <path d="M51.71,25.19v15.52c0,1.45-1.17,2.63-2.62,2.63H37.37c-1.44,0-2.62-1.18-2.62-2.63V25.19
  c0-1.45,1.18-2.63,2.62-2.63h11.72C50.54,22.56,51.71,23.74,51.71,25.19z"></path> </svg>