<svg version="1.1" id="Layer_1" xmlns="http://www.w3.org/2000/svg" xmlns:xlink="http://www.w3.org/1999/xlink" x="0px" y="0px" width="87px" height="66px" viewBox="0 0 87 66" enable-background="new 0 0 87 66" xml:space="preserve"> <g> <path d="M43.5,45.537c-2.487,0-4.75-0.675-6.8-2.013c-2.038-1.337-3.575-3.063-4.588-5.162L22.063,20.75
    C19.963,24.512,19,28.725,19,33c0,6.125,1.987,11.475,5.975,16.025c3.988,4.563,8.95,7.288,14.888,8.188l7.112-12.3
    C46.25,45.125,45.063,45.537,43.5,45.537z"></path> <path d="M35.8,23.1c2.263-1.763,4.825-2.35,7.7-2.35c0.388,0,21.05,0,21.05,0c-2.175-3.7-5.125-6.825-8.85-9
    C51.975,9.587,47.9,8.5,43.5,8.5c-3.825,0-7.4,0.813-10.713,2.438s-6.387,4-8.637,7.037l7.112,11.963
    C31.95,27.2,33.525,24.85,35.8,23.1z"></path> <path d="M66.162,23.813H51.925c2.487,2.487,4.112,5.675,4.112,9.188c0,2.612-0.737,5.013-2.2,7.175L43.787,57.5
    c6.7-0.063,12.413-2.487,17.138-7.275C65.638,45.438,68,39.7,68,33C68,29.875,67.475,26.587,66.162,23.813z"></path> <circle cx="43.5" cy="33" r="9.188"></circle> </g> </svg>