<svg version="1.1" id="Layer_1" xmlns="http://www.w3.org/2000/svg" xmlns:xlink="http://www.w3.org/1999/xlink" x="0px" y="0px" width="87px" height="66px" viewBox="0 0 87 66" enable-background="new 0 0 87 66" xml:space="preserve"> <path d="M79.581,6.79c-0.542-0.543-1.264-0.842-2.034-0.843L9.452,5.949c-1.583,0-2.872,1.288-2.873,2.871v48.36
    c-0.001,0.768,0.298,1.489,0.84,2.031c0.542,0.543,1.264,0.843,2.032,0.843h68.096c1.584,0,2.872-1.289,2.872-2.873V8.821
    C80.421,8.054,80.123,7.333,79.581,6.79z M79.441,57.181c0,1.045-0.85,1.895-1.894,1.895H9.452
    c-0.506-0.001-0.982-0.198-1.339-0.556c-0.357-0.358-0.554-0.834-0.554-1.34V8.82c0-1.043,0.851-1.893,1.894-1.895H77.55
    c0.506,0,0.98,0.197,1.338,0.555s0.554,0.833,0.554,1.34V57.181z"></path> <path d="M77.048,11.163h-66.23c-0.547-0.001-0.99,0.442-0.99,0.989v41.697c0,0.547,0.443,0.99,0.99,0.99h66.23
    h0.001c0.547-0.001,0.99-0.444,0.989-0.991V12.153C78.038,11.606,77.595,11.163,77.048,11.163z"></path> <circle cx="43.933" cy="9.316" r="1"></circle> </svg>