<svg version="1.1" id="Layer_1" xmlns="http://www.w3.org/2000/svg" xmlns:xlink="http://www.w3.org/1999/xlink" x="0px" y="0px" width="87px" height="66px" viewBox="0 0 87 66" enable-background="new 0 0 87 66" xml:space="preserve"> <path d="M55.79,54.15l-1.3,1.48c-0.19,0.25-0.45,0.36-0.77,0.36H33.23c-0.29,0-0.54-0.12-0.78-0.35l-1.3-1.49
    c-2.83-3.2-4.24-7.47-3.89-11.72l0.42-4.45h31.64l0.41,4.45C60.1,46.7,58.67,50.97,55.79,54.15z"></path> <path d="M59.16,36.95H27.73l1.66-18.02c1.26,1.14,3.77,1.74,7.26,1.74c2.49,0,5.16-0.28,7.73-0.82
    c3-0.62,5.73-1.47,7.94-2.46c2.2-0.98,3.89-2.09,4.82-3.22L59.16,36.95z"></path> <path d="M56.12,12.9c-0.74,1.18-3.38,3.47-12.83,5.58c-0.04,0-3.51,0.67-6.91,0.67c-2.82,0-6.18-0.46-6.33-2.62
    c0.14-0.44,1.57-4.04,11.89-5.74c3.15-0.52,5.87-0.78,8.07-0.78c4.85,0,6.09,1.25,6.38,1.95C56.4,11.98,56.48,12.32,56.12,12.9z"></path> </svg>