<svg version="1.1" id="Layer_1" xmlns="http://www.w3.org/2000/svg" xmlns:xlink="http://www.w3.org/1999/xlink" x="0px" y="0px" width="87px" height="66px" viewBox="0 0 87 66" enable-background="new 0 0 87 66" xml:space="preserve" style="padding: 10px;"> <g id="huawei" stroke="none" stroke-width="1"> <g id="Huawei_Standard_logo" transform="translate(-774.000000, -93.000000)"></g> <g id="g11533" transform="translate(0.929340, -0.909580)"> <path d="M36.0216451,2.14363286 C34.8997417,2.24286858 31.8679704,2.93294572 31.8679704,2.93294572 L31.8667235,2.93294572 C25.0332155,4.69922358 23.4180658,10.9004657 23.4180658,10.9004657 C23.0843628,11.9432422 22.9327773,13.0119236 22.8881966,14.0187536 L22.8881966,15.3891022 C22.9788759,17.5063115 23.4497364,19.0872236 23.4497364,19.0872236 C25.7323582,29.2087479 36.9556134,45.8398522 39.3677013,49.3335387 C39.5388299,49.5032529 39.6758789,49.4419672 39.6758789,49.4419672 C39.9362253,49.3700744 39.9158431,49.1203822 39.9158431,49.1203822 L39.9207931,49.1216315 C43.6360014,11.9868493 36.0216922,2.14363286 36.0216922,2.14363286 L36.0216451,2.14363286 Z M48.2975319,2.14344429 C48.2975319,2.14344429 40.6499163,11.992035 44.3679839,49.1484087 L44.3729339,49.1484087 C44.401691,49.3842879 44.5690481,49.4334344 44.5690481,49.4334344 C44.8178681,49.5298415 44.9454391,49.2908272 44.9454391,49.2908272 L44.946686,49.2931844 C47.42063,45.7103036 58.5799289,29.1697136 60.8524715,19.087035 C60.8524715,19.087035 62.0846137,14.206995 60.8951358,10.9002772 C60.8951358,10.9002772 59.2057998,4.60300501 52.3636505,2.93886215 C52.3636505,2.93886215 50.3918793,2.43829929 48.2976757,2.14344429 L48.2975319,2.14344429 Z M13.0229385,13.2913393 C13.0229385,13.2913393 6.51187115,19.4714143 6.1882543,26.0230222 L6.19084715,26.0230222 L6.19084715,27.0157565 C6.19579715,27.0904779 6.19956858,27.1661422 6.20428287,27.2422779 C6.48475458,32.5252715 10.4590577,35.6519508 10.4590577,35.6519508 C16.8625121,41.8928636 32.3676729,49.7723208 35.9706789,51.5601665 C36.0211453,51.5790237 36.207296,51.6398379 36.3166179,51.5017094 C36.3166179,51.5017094 36.3734958,51.4585737 36.3994479,51.3810237 L36.3994479,51.2164951 C36.3968551,51.2070665 36.3919051,51.1976379 36.3871908,51.1872665 L36.3884377,51.1872665 C26.521506,29.6324208 13.0230823,13.2913393 13.0230823,13.2913393 L13.0229385,13.2913393 Z M47.9601187,51.0924622 L47.9638902,51.0912129 C47.9638902,51.0912129 47.8474237,51.3406222 48.0357594,51.5017094 C48.0357594,51.5017094 48.0919537,51.5441379 48.1697394,51.5613451 L48.3061709,51.5613451 C48.3306852,51.5542737 48.3569909,51.5448451 48.3829194,51.5271665 C52.0837469,49.6927672 67.4689197,41.8650965 73.8421578,35.6529643 C73.8421578,35.6529643 77.8781969,32.4118693 78.0896303,27.2079815 C78.555661,19.980345 71.280521,13.2913157 71.280521,13.2913157 C71.2804008,13.2913157 57.8226967,29.5813179 47.9601187,51.0924622 Z M83.393065,34.6909201 C83.393065,34.6909201 61.4529065,46.4650844 50.1088289,54.1169829 L50.1100758,54.1182322 L50.1126687,54.1205894 C50.1126687,54.1205894 49.9067958,54.2554179 49.9786651,54.4970015 C49.9786651,54.4970015 50.0863158,54.6919372 50.2429904,54.6919372 L50.2429904,54.6931865 C54.306278,54.7001988 69.6818714,54.7174651 70.0673633,54.6455722 C70.0673633,54.6455722 72.0555001,54.5661365 74.5121616,53.6223601 C74.5121616,53.6223601 79.9812421,51.8836137 82.8219552,45.6743572 C82.8219552,45.6743572 84.1199914,43.0780115 84.1387071,39.4304272 L84.1387071,39.2757986 C84.1292785,37.8691265 83.9311135,36.3119036 83.3932394,34.6909201 L83.393065,34.6909201 Z M0.904188216,34.7458415 C-1.092036,40.9256572 1.59538029,45.9052158 1.59971979,45.9132536 C4.40034258,51.8307665 9.74628837,53.6237508 9.74628837,53.6237508 C12.2144574,54.6377701 14.6831921,54.7078479 14.6831921,54.7078479 C15.0686722,54.7783265 30.0346507,54.7149194 34.0446905,54.6960622 C34.2144048,54.6948129 34.3077995,54.5242265 34.3077995,54.5242265 C34.3195852,54.5053694 34.3299566,54.4865122 34.3346238,54.4693051 L34.3346238,54.3146765 C34.3013881,54.2111979 34.2128066,54.1381265 34.2128066,54.1381265 L34.2153995,54.1368772 C22.8769931,46.4875008 0.904365002,34.7461479 0.904365002,34.7461479 L0.904188216,34.7458415 Z M33.5866906,56.5958722 L7.77663623,57.5009208 C10.5756255,62.4904972 15.2894587,66.3682565 20.1999082,65.1773101 C23.5886122,64.3301294 31.2655271,58.9753844 33.7998517,57.1659472 L33.791366,57.1588758 C33.9884231,56.9818544 33.9180388,56.8397422 33.9180388,56.8397422 C33.8532174,56.6080351 33.5867212,56.6082708 33.5867212,56.6082708 L33.5866906,56.5958722 Z M50.6813247,56.6147294 L50.6787318,56.624158 C50.6787318,56.624158 50.4521397,56.6529151 50.3888221,56.8226294 C50.3888221,56.8226294 50.3337592,57.0545722 50.4862664,57.1697658 L50.4836735,57.172123 C52.9547371,58.9441287 60.4456192,64.1812051 64.0543814,65.1981001 C64.0543814,65.1981001 64.601083,65.3840787 65.5173091,65.4173144 L66.0678811,65.4173144 C68.4857204,65.3324573 72.6977508,64.090408 76.5251639,57.5143565 L50.6813247,56.6147294 Z" id="path4252"></path> </g> </g> </svg>