<svg version="1.1" id="Layer_1" xmlns="http://www.w3.org/2000/svg" xmlns:xlink="http://www.w3.org/1999/xlink" x="0px" y="0px" width="87px" height="66px" viewBox="0 0 87 66" enable-background="new 0 0 87 66" xml:space="preserve"> <path d="M61.785,65.851h-36.57c-2.275,0-4.125-1.851-4.125-4.126V4.275c0-2.275,1.851-4.125,4.125-4.125h36.57
  c2.275,0,4.126,1.851,4.126,4.125v57.449C65.911,64,64.061,65.851,61.785,65.851z M25.215,1.093c-1.755,0-3.182,1.427-3.182,3.182
  v57.449c0,1.755,1.427,3.183,3.182,3.183h36.57c1.755,0,3.183-1.428,3.183-3.183V4.275c0-1.755-1.428-3.182-3.183-3.182H25.215z"></path> <path d="M63.81,5.717V59.3c-0.001,0.527-0.428,0.954-0.955,0.954H24.276c-0.527-0.001-0.953-0.427-0.954-0.954V5.717
  c0-0.527,0.427-0.955,0.954-0.955h38.58C63.382,4.763,63.81,5.19,63.81,5.717z"></path> <ellipse cx="43.598" cy="62.449" rx="1.152" ry="1.152"></ellipse> </svg>