<svg version="1.1" id="Layer_1" xmlns="http://www.w3.org/2000/svg" xmlns:xlink="http://www.w3.org/1999/xlink" x="0px" y="0px" width="87px" height="66px" viewBox="0 0 87 66" enable-background="new 0 0 87 66" xml:space="preserve"> <path d="M86.157,58.061L86.157,58.061h-6.511c0.148-0.346,0.232-0.727,0.232-1.127V8.574
    c0.001-0.768-0.298-1.489-0.84-2.032S77.774,5.7,77.007,5.699L8.912,5.701c-1.583,0-2.872,1.288-2.873,2.871v48.36
    c0,0.395,0.082,0.776,0.232,1.129l-5.429,0H0.125v0.175c0,1.286,1.572,2.293,3.578,2.293h79.595c2.006,0,3.577-1.007,3.577-2.293
    v-0.176H86.157z M7.018,56.933V8.573C7.019,7.529,7.869,6.68,8.912,6.678h68.096c1.044,0,1.893,0.851,1.892,1.896v48.36
    c0,0.424-0.145,0.811-0.381,1.127L7.399,58.061C7.155,57.736,7.018,57.346,7.018,56.933z"></path> <path d="M76.505,10.916H10.278c-0.547-0.001-0.99,0.442-0.99,0.989v41.697c0,0.547,0.443,0.99,0.99,0.99h66.228
    h0.001c0.547-0.001,0.99-0.444,0.989-0.991V11.906C77.495,11.359,77.052,10.916,76.505,10.916z"></path> <circle cx="43.391" cy="9.068" r="1"></circle> </svg>