<svg version="1.1" id="Layer_1" xmlns="http://www.w3.org/2000/svg" xmlns:xlink="http://www.w3.org/1999/xlink" x="0px" y="0px" width="87px" height="66px" viewBox="0 0 87 66" enable-background="new 0 0 87 66" xml:space="preserve"> <path d="M33.24,38.037c-2.228,1.054-4.691,2.167-7.505,3.455c4.456-0.703,7.974,0.761,11.14,2.693
    c1.115-0.703,2.17-1.523,3.225-2.283c0.88-0.644,1.759-1.347,2.698-1.933c-0.776-0.547-1.539-1.113-2.287-1.697
    c-0.997-0.762-1.994-1.523-3.049-2.167C36.053,36.745,34.645,37.389,33.24,38.037z"></path> <path d="M62.147,41.492c-8.912-5.387-13.955-4.158-18.294-1.464C48.954,43.542,54.29,45.825,62.147,41.492z"></path> <path d="M37.402,44.477c0.941,0.591,1.861,1.216,2.756,1.874c1.465,1.054,2.99,2.108,4.515,2.928l1.231-1.055
    c2.228-1.815,4.046-3.396,6.216-3.981c-3.226-0.469-6.099-2.108-8.796-3.982c-0.997,0.644-1.935,1.347-2.872,2.05
    C39.459,43.066,38.442,43.789,37.402,44.477z"></path> <path d="M35.292,33.997c0.762,0.41,1.525,0.937,2.229,1.405c8.091-3.689,11.843-4.977,16.593-4.099
    C46.667,27.556,40.804,30.307,35.292,33.997z"></path> <path d="M43.499,11.335c-11.961,0-21.695,9.72-21.695,21.665c0,11.946,9.734,21.666,21.695,21.666
    c11.962,0,21.695-9.721,21.695-21.666S55.461,11.335,43.499,11.335z M63.905,38.27c-0.058,0.234-0.117,0.41-0.176,0.644
    c-2.756-2.986-5.336-5.152-7.74-6.616c-5.629-1.581-9.205-0.527-17.942,3.454c0.938,0.645,1.818,1.347,2.756,2.05
    c0.821,0.585,1.642,1.229,2.463,1.815c4.515-2.811,9.908-4.274,19.408,1.522c0.117-0.117,0.234-0.175,0.351-0.234
    c-0.117,0.352-0.293,0.644-0.41,0.937c-2.58,1.464-4.866,2.225-7.036,2.459c1.29,0.293,2.697,0.937,4.339,1.932
    c-0.117,0.176-0.235,0.293-0.352,0.47c-6.274-3.865-9.03-1.582-13.251,1.99l-1.056,0.878c2.932,1.464,6.098,2.167,10.203,0.879
    c-0.528,0.351-1.056,0.702-1.642,0.995c-0.821,0.176-1.642,0.234-2.404,0.234c-2.404,0-4.515-0.702-6.509-1.698
    c-1.465,1.171-3.225,2.518-5.335,3.689l-0.88-0.176c2.229-1.171,4.046-2.517,5.629-3.806c-1.524-0.819-2.99-1.815-4.398-2.811
    c-0.996-0.702-1.993-1.346-2.99-1.99c-2.405,1.464-5.043,2.576-8.385,2.576h-0.41c-0.235-0.234-0.411-0.41-0.587-0.644
    c3.518,0.234,6.274-0.82,8.737-2.283c-3.284-1.991-6.977-3.338-11.727-2.225c-0.117-0.235-0.235-0.527-0.352-0.762
    c3.342-1.522,6.215-2.869,8.795-4.04c1.408-0.644,2.698-1.288,3.929-1.815c-0.704-0.469-1.407-0.937-2.111-1.347
    c-0.815,0.527-1.616,1.073-2.404,1.64c-2.697,1.932-5.453,3.864-8.385,5.094c-0.117-0.176-0.176-0.351-0.234-0.527
    c2.814-1.171,5.453-3.045,8.267-5.036c0.704-0.527,1.466-1.054,2.17-1.522c-3.401-1.815-7.154-2.753-11.845-1.523v-0.585
    c4.926-1.288,8.854-0.176,12.372,1.756c6.216-4.157,12.783-7.319,21.461-1.873c2.229,0.644,4.867,1.698,8.209,3.162
    c0,0.175-0.059,0.41-0.059,0.585c-2.462-1.054-4.573-1.932-6.391-2.576C59.859,34.289,61.853,36.045,63.905,38.27z"></path> <path d="M43.5,7.822C29.575,7.822,18.287,19.095,18.287,33c0,13.905,11.288,25.178,25.213,25.178
    S68.713,46.905,68.713,33C68.713,19.095,57.425,7.822,43.5,7.822z M43.5,56.422C30.6,56.422,20.047,45.94,20.047,33
    C20.046,20.059,30.542,9.579,43.5,9.579c12.9,0,23.454,10.539,23.454,23.421S56.459,56.422,43.5,56.422z"></path> </svg>