<svg version="1.1" id="Layer_1" xmlns="http://www.w3.org/2000/svg" xmlns:xlink="http://www.w3.org/1999/xlink" x="0px" y="0px" width="87px" height="66px" viewBox="0 0 87 66" enable-background="new 0 0 87 66" xml:space="preserve"> <path d="M48.23,43.82v6.03c0,1.39-1.13,2.52-2.52,2.52h-4.42c-1.39,0-2.51-1.13-2.51-2.52v-6.02
  c1.45,0.64,3.04,1,4.72,1S46.78,44.47,48.23,43.82z"></path> <path d="M48.23,16.15v6.04c-1.45-0.65-3.05-1.01-4.73-1.01s-3.27,0.36-4.72,1v-6.03c0-1.39,1.12-2.52,2.51-2.52h4.42
  C47.1,13.63,48.22,14.76,48.23,16.15z"></path> <path d="M53.2,33c0,3.67-2.01,6.88-4.97,8.56c-1.4,0.8-3.01,1.25-4.73,1.25s-3.33-0.45-4.72-1.25
  c-2.97-1.67-4.98-4.88-4.98-8.56s2.01-6.89,4.98-8.56c1.39-0.8,3-1.25,4.72-1.25s3.33,0.45,4.73,1.25
  C51.19,26.12,53.2,29.33,53.2,33z"></path> </svg>