<svg version="1.1" id="Layer_1" xmlns="http://www.w3.org/2000/svg" xmlns:xlink="http://www.w3.org/1999/xlink" x="0px" y="0px" width="87px" height="66px" viewBox="-68.5 42 87 66" enable-background="new -68.5 42 87 66" xml:space="preserve"> <path d="M-24.903,98.894c-13.265,0-24.017-10.73-24.017-23.967c-0.001-13.237,10.752-23.968,24.017-23.968
  s24.019,10.73,24.019,23.968C-0.884,88.164-11.638,98.894-24.903,98.894z M-28.952,69.888l8.099,8.081l6.753-13.484
  c0.43-0.858-0.483-1.769-1.343-1.34C-15.443,63.145-28.952,69.888-28.952,69.888z M-22.269,79.38l-8.097-8.079l-6.754,13.476
  c-0.43,0.858,0.482,1.77,1.342,1.34L-22.269,79.38z"></path> </svg>