<?xml version="1.0" encoding="utf-8"?>
<!-- Generator: Adobe Illustrator 17.0.0, SVG Export Plug-In . SVG Version: 6.00 Build 0)  -->
<!DOCTYPE svg PUBLIC "-//W3C//DTD SVG 1.1//EN" "http://www.w3.org/Graphics/SVG/1.1/DTD/svg11.dtd">
<svg xmlns="http://www.w3.org/2000/svg" width="50" height="34" viewBox="-3.5 -2.5 50 34"><title>  Imported Layers</title><desc>  Created with Sketch.</desc><path d="M45.5 11.7l-1.7-2 -9.3-10.5c-0.4-0.5-1.1-0.9-2-1.3 -0.8-0.3-1.7-0.5-2.6-0.5H3.5c-2 0-3.6 0.7-4.9 2 -1.4 1.5-2.1 3.1-2.1 4.9v20.1c0 1.9 0.7 3.5 2.1 4.9 1.3 1.4 3 2 4.9 2h26.4c1 0 1.8-0.2 2.6-0.5 0.8-0.3 1.5-0.9 2.1-1.5l9.2-11.3 1.7-2.1C46.8 14.5 46.8 13 45.5 11.7L45.5 11.7zM27.5 10.3L17 20.7l-6.7-6.6c-0.1-0.1-0.1-0.2-0.2-0.3l2.2-2.1c0.1 0.1 0.2 0.1 0.3 0.1l4.4 4.6 8.2-8.3c0.2-0.2 0.4-0.3 0.5-0.4l2.1 2C27.9 9.9 27.8 10.1 27.5 10.3L27.5 10.3z" fill="#0DA5F3"/></svg>
